<svg width="830" height="415" xmlns="http://www.w3.org/2000/svg">

 <g>
  <title>Layer 1</title>
  <path id="svg_1" d="m415,830c-229.28177,0 -415,-185.71823 -415,-415c0,-229.28177 185.71823,-415 415,-415c229.28177,0 415,185.71823 415,415c0,229.28177 -185.71823,415 -415,415z" opacity="undefined" stroke="#000" fill="#fff"/>
  <path id="svg_3" d="m10.73523,332.59259c-5.24862,0 -9.5,-4.25138 -9.5,-9.5c0,-5.24862 4.25138,-9.5 9.5,-9.5c5.24862,0 9.5,4.25138 9.5,9.5c0,5.24862 -4.25138,9.5 -9.5,9.5z" opacity="undefined" stroke="#000" fill="#000000"/>
  <path id="svg_5" d="m819.25943,334.53938c-5.24862,0 -9.5,-4.25138 -9.5,-9.5c0,-5.24862 4.25138,-9.5 9.5,-9.5c5.24862,0 9.5,4.25138 9.5,9.5c0,5.24862 -4.25138,9.5 -9.5,9.5z" opacity="undefined" stroke="#000" fill="#000000"/>
  <ellipse ry="9.5" rx="9.5" id="svg_7" cy="159.28503" cx="88.32867" stroke="#000" fill="#000000"/>
  <path id="svg_8" d="m743.90458,168.51978c-5.24862,0 -9.5,-4.25138 -9.5,-9.5c0,-5.24862 4.25138,-9.5 9.5,-9.5c5.24862,0 9.5,4.25138 9.5,9.5c0,5.24862 -4.25138,9.5 -9.5,9.5z" opacity="undefined" stroke="#000" fill="#000000"/>
 </g>
</svg>