<svg width="69" height="172" viewBox="0 0 69 172" fill="none" xmlns="http://www.w3.org/2000/svg">
<path d="M8.02459 16.5102C6.43452 12.9271 7.86058 9.44612 11.7726 7.97347C15.6846 6.50082 19.3497 8.06528 20.9398 11.6483C22.3433 14.8109 21.5904 17.8891 18.7453 18.9601L18.5207 19.0447L17.896 17.6371L18.1207 17.5525C20.2545 16.7493 20.8489 14.84 19.6564 12.1528C18.3016 9.09989 15.7876 8.06212 12.381 9.34452C8.9744 10.6269 7.96941 12.9894 9.32422 16.0423C10.5168 18.7295 12.393 19.7087 14.5269 18.9054L14.7515 18.8208L15.3761 20.2285L15.1515 20.313C12.3064 21.384 9.43619 19.691 8.02459 16.5102Z" fill="#2D1312"/>
<path d="M14.08 29.8702C12.8903 26.8781 14.1227 24.1921 16.9589 23.2144C19.7951 22.2366 22.609 23.5278 23.7988 26.5199C24.9959 29.5306 23.7635 32.2166 20.9273 33.1943C18.0911 34.172 15.2772 32.8809 14.08 29.8702ZM15.2901 29.4531C16.2952 31.9806 18.141 32.6756 20.41 31.8934C22.66 31.1177 23.5937 29.4646 22.5886 26.9371C21.5836 24.4095 19.7263 23.7396 17.4762 24.5153C15.2072 25.2975 14.2851 26.9255 15.2901 29.4531Z" fill="#2D1312"/>
<path d="M19.3653 44.6094L18.6388 42.5965C17.9734 40.7529 18.3268 39.3183 20.5368 38.6125L25.7952 36.9331L25.1977 35.2777L26.3598 34.9065L26.9573 36.562L29.2055 35.844L29.6943 37.1985L27.4462 37.9164L28.777 41.6036L27.6148 41.9748L26.284 38.2876L20.9495 39.9913C19.6349 40.4111 19.5037 41.1663 19.9926 42.5208L20.6037 44.2139L19.3653 44.6094Z" fill="#2D1312"/>
<path d="M23.073 54.3259L22.401 52.2942C21.7856 50.4333 22.1757 49.0025 24.3989 48.3391L29.6884 46.7607L29.1357 45.0897L30.3048 44.7408L30.8574 46.4118L33.1189 45.737L33.571 47.1041L31.3096 47.779L32.5404 51.5007L31.3714 51.8496L30.1405 48.1278L24.7743 49.7292C23.452 50.1238 23.3014 50.8781 23.7535 52.2452L24.3187 53.9542L23.073 54.3259Z" fill="#2D1312"/>
<path d="M25.1923 62.8625C24.2802 59.7744 25.7381 57.1569 28.6316 56.3648C31.5252 55.5726 34.1954 57.0599 35.1074 60.148C36.0252 63.2553 34.5673 65.8727 31.6737 66.6649C28.7802 67.4571 26.11 65.9698 25.1923 62.8625ZM26.4269 62.5245C27.1973 65.1331 28.9624 65.956 31.2772 65.3222C33.5727 64.6938 34.6433 63.0946 33.8729 60.486C33.1024 57.8774 31.3237 57.079 29.0282 57.7074C26.7134 58.3411 25.6564 59.9159 26.4269 62.5245Z" fill="#2D1312"/>
<path d="M30.6549 83.088C29.9237 79.9932 31.4073 77.5746 34.4659 76.8639C37.388 76.1849 39.9323 77.6469 40.6635 80.7417C41.3304 83.564 40.1676 85.949 37.3039 86.6145C36.9533 86.696 36.6519 86.7249 36.3848 86.7254L34.3844 78.2585C32.2404 78.8389 31.1973 80.2516 31.7997 82.8014C32.3332 85.0592 33.4192 85.9157 34.8218 85.5897L34.9582 85.558L35.2847 86.94L35.1483 86.9717C33.1418 87.4379 31.2896 85.774 30.6549 83.088ZM39.5096 80.9893C38.9209 78.4979 37.3685 77.6678 35.2415 78.0593L36.9569 85.3194C37.0543 85.2968 37.1517 85.2742 37.2491 85.2515C39.2751 84.7807 40.043 83.2471 39.5096 80.9893Z" fill="#2D1312"/>
<path d="M34.9542 100.912L34.6971 99.5151L43.1961 97.8532L42.9101 96.2993L44.1074 96.0651L44.3971 97.6387C46.7226 97.347 48.1666 98.6744 48.6301 101.192L48.8256 102.254L47.7264 102.469L47.4947 101.21C47.1688 99.4401 46.4026 98.5915 44.6505 99.0156L45.371 102.93L44.1737 103.164L43.4532 99.2497L34.9542 100.912Z" fill="#2D1312"/>
<path d="M36.8747 112.535C36.4539 109.747 38.1796 108.05 40.4858 107.653L46.1821 106.673L46.394 108.077L40.9145 109.02C38.8843 109.369 37.8706 110.558 38.2108 112.812C38.5719 115.205 40.1988 116.204 42.702 115.773L47.4325 114.959L47.6444 116.364L37.9074 118.038L37.7164 116.773L40.7518 116.251L40.7369 116.152C39.0305 116.1 37.2418 114.968 36.8747 112.535Z" fill="#2D1312"/>
<path d="M38.4901 124.328L38.3309 122.917L48.1088 121.5L48.2523 122.772L45.1844 123.217L45.1956 123.316C46.8964 123.413 48.6566 124.572 48.9324 127.016C49.2442 129.779 47.4394 131.434 45.1236 131.77L39.4231 132.595L39.2639 131.184L44.7664 130.387C46.7853 130.095 47.8432 128.952 47.5898 126.706C47.3207 124.321 45.7345 123.278 43.2207 123.643L38.4901 124.328Z" fill="#2D1312"/>
<path d="M40.3332 140.556C40.1127 137.625 41.9044 135.603 44.5858 135.286C47.2672 134.97 49.3333 136.598 49.5613 139.629C49.7173 141.703 48.867 143.453 47.1491 144.058L47.1566 144.158L49.6791 143.861L49.7751 145.137L40.8966 146.184C37.659 146.566 36.2334 144.662 36.0099 141.69C35.809 139.018 36.9868 136.826 39.271 136.557L39.3774 137.973C37.6494 138.177 37.0611 139.413 37.226 141.607C37.418 144.16 38.2676 145.066 40.7107 144.778L43.2729 144.475L43.2654 144.376C41.7259 144.155 40.5041 142.83 40.3332 140.556ZM44.6923 136.702C42.1896 136.998 41.4525 138.654 41.613 140.788C41.7959 143.221 43.114 144.494 45.1996 144.248L45.5372 144.208C47.4639 143.981 48.5049 142.369 48.334 140.096C48.1675 137.882 47.1949 136.407 44.6923 136.702Z" fill="#2D1312"/>
<path d="M40.1775 152.341L40.1237 150.923L53.4685 149.707L53.5222 151.126L47.0092 151.719L47.013 151.819C48.6783 151.988 50.2803 153.126 50.3756 155.644C50.4801 158.402 48.6999 159.948 46.2102 160.175L40.4939 160.695L40.4401 159.277L45.9772 158.772C48.2279 158.567 49.1438 157.421 49.0598 155.202C48.9599 152.564 47.2482 151.697 44.7983 151.921L40.1775 152.341Z" fill="#2D1312"/>
<path d="M52.1861 166.177L52.1718 164.757L54.4261 164.597L54.4404 166.017L52.1861 166.177ZM41.074 166.965L41.0597 165.545L50.9149 164.846L50.9292 166.266L41.074 166.965Z" fill="#2D1312"/>
</svg>
