<svg width="77" height="85" viewBox="0 0 77 85" fill="none" xmlns="http://www.w3.org/2000/svg">
<path d="M23.3628 71.9905L20.6099 77.1182L9.30925 69.9171L12.0622 64.7894C13.9637 61.2476 17.3673 60.3893 20.825 62.5926C24.2826 64.7959 25.2644 68.4487 23.3628 71.9905ZM13.1585 65.488L11.0867 69.347L20.1947 75.1509L22.2665 71.2919C23.8748 68.2963 23.1852 65.8703 20.1154 63.9142C17.0457 61.9581 14.7668 62.4924 13.1585 65.488Z" fill="#2D1312"/>
<path d="M19.8424 56.2529L19.093 57.4591L17.2356 56.1715L17.985 54.9653L19.8424 56.2529ZM28.9976 62.5997L28.2482 63.8059L20.1285 58.1769L20.8779 56.9708L28.9976 62.5997Z" fill="#2D1312"/>
<path d="M33.6571 55.2571C32.541 56.8439 31.0441 57.3735 29.7616 56.4168C28.463 55.4483 28.6729 53.9337 29.5712 52.3092L31.8584 48.1541L31.2492 47.6997C29.7102 46.5517 28.6177 46.7844 27.375 48.5511C26.1553 50.2851 26.1201 51.6555 27.5148 52.6959L27.579 52.7437L26.762 53.9051L26.6979 53.8573C25.0306 52.6137 24.6575 50.1905 26.4065 47.704C28.1325 45.2502 30.2476 45.2317 31.9951 46.5351L36.9488 50.23L36.2124 51.277L34.0802 49.6866L34.0227 49.7684C35.1479 51.3309 34.9804 53.3759 33.6571 55.2571ZM30.4984 55.1956C31.3 55.7935 32.0965 55.5646 32.9595 54.3377C34.3403 52.3747 34.5838 50.1869 32.676 48.7639L32.6119 48.7161L30.5457 52.4874C29.8065 53.7816 29.6808 54.5858 30.4984 55.1956Z" fill="#2D1312"/>
<path d="M43.9288 42.8919L42.8241 44.2362L32.1832 41.6234L33.1609 40.4336L42.2615 42.7157L42.3377 42.623L38.3036 34.1756L39.2813 32.9858L43.9288 42.8919Z" fill="#2D1312"/>
<path d="M52.4549 33.4857C50.2251 35.8088 47.1524 35.9212 44.9224 33.9145C42.6924 31.9078 42.5835 28.9324 44.8133 26.6094C47.0569 24.2719 50.1295 24.1595 52.3596 26.1662C54.5896 28.1729 54.6985 31.1483 52.4549 33.4857ZM51.5034 32.6295C53.3869 30.6672 53.1742 28.7816 51.3901 27.1762C49.621 25.5842 47.6483 25.5032 45.7648 27.4656C43.8812 29.4279 44.1227 31.3125 45.8919 32.9045C47.6759 34.5098 49.6199 34.5918 51.5034 32.6295Z" fill="#2D1312"/>
<path d="M59.5794 26.4306L58.5372 27.3951L48.9058 18.0786L49.948 17.1141L59.5794 26.4306Z" fill="#2D1312"/>
<path d="M66.3654 21.3134C64.8692 22.5484 63.2127 22.7264 62.1021 21.5746C60.9776 20.4084 61.5252 19.0515 62.8054 17.7362L66.0691 14.3699L65.5416 13.8228C64.2089 12.4407 63.0336 12.4283 61.3678 13.8033C59.7328 15.1529 59.3966 16.4129 60.6043 17.6655L60.6599 17.7231L59.5647 18.6271L59.5092 18.5695C58.0655 17.0721 58.212 14.7534 60.5565 12.8182C62.8701 10.9085 65.0511 11.3318 66.5642 12.9012L70.8538 17.35L69.8667 18.1648L68.0203 16.2499L67.9432 16.3136C68.7592 17.993 68.1392 19.8493 66.3654 21.3134ZM63.1278 20.5987C63.8219 21.3186 64.6918 21.2727 65.8487 20.3179C67.6996 18.7901 68.4291 16.8175 66.7771 15.1042L66.7216 15.0466L63.7694 18.104C62.7252 19.1469 62.4198 19.8644 63.1278 20.5987Z" fill="#2D1312"/>
</svg>
