<svg width="59" height="137" viewBox="0 0 59 137" fill="none" xmlns="http://www.w3.org/2000/svg">
<path d="M26.0219 128.756L25.9543 131.755L12.5992 130.659L12.6908 126.6L19.3394 124.001L22.4973 122.998L22.5023 122.778L19.4003 121.301L12.891 117.722L12.983 113.643L26.338 114.74L26.2704 117.739L19.4932 117.182L17.4025 116.91L17.3975 117.13L19.4729 118.082L25.3897 121.373L25.3076 125.012L19.2646 127.32L17.154 127.928L17.1491 128.148L19.2447 128.2L26.0219 128.756Z" fill="#2D1312"/>
<path d="M26.3588 110.395C26.1959 112.549 25.1048 113.727 23.4365 113.529C21.9668 113.355 21.1362 112.149 21.0792 109.989L20.9667 105.65L20.5893 105.605C19.2984 105.452 18.8971 105.988 18.7764 107.583C18.6617 109.099 19.0122 109.764 20.1442 109.898L20.2237 109.908L19.9958 112.919L19.9363 112.912C17.4736 112.62 15.9225 110.343 16.1714 107.052C16.4234 103.722 18.2506 102.349 20.8523 102.658L26.6913 103.351L26.4801 106.143L24.1961 105.872L24.1841 106.032C25.6985 106.674 26.5263 108.181 26.3588 110.395ZM23.4657 110.494C24.0019 110.558 24.2521 110.165 24.3185 109.287C24.4724 107.253 24.0787 106.1 22.6747 105.853L22.8093 109.37C22.8146 110.095 22.9891 110.437 23.4657 110.494Z" fill="#2D1312"/>
<path d="M28.2425 96.0106L27.8891 98.9897L17.9773 97.5214L18.3048 94.7608L20.936 95.1506L20.9572 94.9718C19.3877 94.4564 18.286 93.2221 18.5239 91.2161C18.7877 88.9917 20.4195 88.3038 22.3583 88.591L24.0004 88.8342L23.647 91.8134L22.6183 91.661C21.5301 91.4998 21.0035 91.8664 20.8598 93.0779C20.702 94.4086 21.2587 94.9761 22.5051 95.1607L28.2425 96.0106Z" fill="#2D1312"/>
<path d="M28.5387 83.0309C28.0579 85.9719 26.0282 87.3563 23.2521 86.8602C20.4958 86.3677 19.0175 84.255 19.5015 81.2943C19.8307 79.281 20.9325 77.9949 22.697 77.9852L22.7228 77.8273L20.3406 77.4016L20.7923 74.6383L29.2189 76.1439C32.6643 76.7596 33.8579 79.1262 33.2803 82.6593C32.7576 85.8568 31.0109 87.6168 28.5302 87.1736L29.0142 84.2129C30.1167 84.4099 30.5224 84.0354 30.8516 82.0222C31.1614 80.1273 30.8612 79.4846 28.9317 79.1398L26.707 78.7423L26.6812 78.9002C28.0864 79.4763 28.9002 80.8203 28.5387 83.0309ZM23.7394 83.8798C25.1963 84.1401 25.8634 83.4061 26.1668 81.5507C26.4765 79.6559 26.0966 78.6332 24.7381 78.3905L24.5216 78.3518C23.1828 78.1126 22.516 78.9686 22.2159 80.8042C21.9061 82.699 22.2825 83.6195 23.7394 83.8798Z" fill="#2D1312"/>
<path d="M32.3781 69.2304L31.7525 72.1644L18.6447 69.381L19.2704 66.447L25.5699 67.7847L25.6033 67.6282C24.0071 66.9621 22.7273 65.484 23.2612 62.9803C23.8243 60.3397 25.8212 59.4143 28.0906 59.8962L34.0967 61.1716L33.471 64.1056L28.3453 63.0172C26.7019 62.6682 25.9649 63.2478 25.5728 65.0864C25.1515 67.062 25.8243 67.8387 27.4676 68.1876L32.3781 69.2304Z" fill="#2D1312"/>
<path d="M36.2007 52.6588C35.3523 55.8893 33.1805 57.7035 29.7232 56.8546C26.6155 56.0916 25.2278 53.4241 26.066 50.2323C26.8992 47.0599 29.1233 45.3615 32.1727 46.1102C32.5223 46.196 32.7647 46.2967 33.0847 46.4165L31.012 54.3088C32.5279 54.5987 33.3518 54.0597 33.8445 52.1833C34.2967 50.4617 34.0074 49.7523 33.1722 49.5473L32.978 49.4996L33.74 46.598L33.9537 46.6504C36.0708 47.1702 37.0085 49.5831 36.2007 52.6588ZM28.3233 50.8483C27.8712 52.5699 28.2608 53.448 29.4878 53.8934L30.8391 48.7479C29.5368 48.5105 28.7703 49.146 28.3233 50.8483Z" fill="#2D1312"/>
<path d="M39.4347 41.4302L38.5496 44.2967L28.8916 41.6277L29.7117 38.9715L32.2756 39.68L32.3287 39.508C30.8499 38.809 29.9674 37.4659 30.5633 35.5358C31.2241 33.3955 32.9799 32.9266 34.8691 33.4487L36.4691 33.8908L35.5841 36.7573L34.5817 36.4803C33.5214 36.1873 32.929 36.4798 32.569 37.6456C32.1737 38.9259 32.6297 39.5497 33.8442 39.8853L39.4347 41.4302Z" fill="#2D1312"/>
<path d="M32.8611 26.693L31.885 29.5297L29.6244 28.852L30.6005 26.0152L32.8611 26.693ZM43.436 29.8634L42.4599 32.7002L32.862 29.8227L33.8381 26.9859L43.436 29.8634Z" fill="#2D1312"/>
<path d="M46.8606 19.4631L45.9856 21.7837C45.1601 23.9732 43.6119 24.9651 41.2129 24.1935L37.4812 22.9933L36.9237 24.4716L34.5628 23.7123L35.1203 22.2339L33.2735 21.6399L34.3319 18.8329L36.1787 19.4268L37.3218 16.3952L39.6827 17.1545L38.5396 20.1862L41.9477 21.2823C42.8997 21.5885 43.2812 21.3125 43.6552 20.3207L44.2903 18.6364L46.8606 19.4631Z" fill="#2D1312"/>
<path d="M49.6231 13.8004C48.7815 15.7897 47.3316 16.655 45.7469 16.0973C44.3508 15.606 43.9116 14.2876 44.5379 12.2437L45.7983 8.13745L45.4398 8.01131C44.2136 7.57977 43.648 7.99443 43.0246 9.46798C42.4323 10.8678 42.568 11.5716 43.6434 11.9501L43.7189 11.9766L42.5421 14.7579L42.4856 14.738C40.1462 13.9148 39.3342 11.4282 40.62 8.389C41.9214 5.31297 44.1595 4.42881 46.6309 5.29853L52.1775 7.25042L51.0865 9.82913L48.9169 9.06563L48.8546 9.21299C50.1469 10.1545 50.4881 11.7559 49.6231 13.8004ZM46.7349 13.2496C47.2443 13.4289 47.6155 13.1151 47.9584 12.3046C48.7533 10.4259 48.7291 9.25347 47.4208 8.70842L46.4421 12.0462C46.2182 12.7292 46.2822 13.0903 46.7349 13.2496Z" fill="#2D1312"/>
</svg>
