<svg width="117" height="119" viewBox="0 0 117 119" fill="none" xmlns="http://www.w3.org/2000/svg">
<path d="M57.0364 63.014L56.0641 61.979L63.2181 55.1647L64.0945 56.0976L61.9368 58.1529L61.9915 58.2112C63.3853 57.2704 65.2664 57.0529 66.9508 58.8457C68.4572 60.4491 68.3215 62.2909 67.1504 63.8483L67.2188 63.9212C68.6415 62.9528 70.5935 62.723 72.2916 64.5305C74.0582 66.4108 73.6579 68.6427 71.8477 70.3669L67.6769 74.3397L66.7046 73.3048L70.7305 69.47C72.3235 67.9526 72.4185 66.564 70.9943 65.0481C69.3646 63.3135 67.7081 63.5657 65.811 65.3727L62.3498 68.6695L61.3775 67.6346L65.4035 63.7998C66.9964 62.2825 67.1051 60.9085 65.6809 59.3925C64.0375 57.6434 62.3947 57.9101 60.4976 59.7171L57.0364 63.014Z" fill="#2D1312"/>
<path d="M71.1569 78.7373C69.9079 77.2528 69.7471 75.6331 70.9454 74.5729C72.1587 73.4995 73.5457 74.061 74.8801 75.3364L78.2954 78.5882L78.8647 78.0846C80.3026 76.8124 80.331 75.666 78.9404 74.0132C77.5755 72.391 76.2853 72.0376 74.9821 73.1906L74.9222 73.2436L74.008 72.157L74.0679 72.104C75.6257 70.7258 78.0063 70.9154 79.9634 73.2416C81.8949 75.5371 81.4308 77.6563 79.798 79.1008L75.1695 83.1959L74.3455 82.2164L76.3377 80.4538L76.2733 80.3773C74.5368 81.1395 72.6376 80.4972 71.1569 78.7373ZM71.9345 75.5932C71.1856 76.2559 71.221 77.1055 72.1868 78.2532C73.7319 80.0897 75.749 80.8412 77.5315 79.2641L77.5914 79.2111L74.4893 76.2695C73.4316 75.2297 72.6985 74.9174 71.9345 75.5932Z" fill="#2D1312"/>
<path d="M81.3149 90.9535C79.5264 88.6201 79.9232 85.9512 81.9993 84.2249C84.0754 82.4987 86.6986 82.7347 88.5479 85.1475C89.8132 86.7984 90.0573 88.7266 88.9473 90.1693L89.0082 90.2486L90.9613 88.6247L91.7399 89.6406L84.8657 95.3563C82.359 97.4405 80.1216 96.6239 78.3088 94.2587C76.6785 92.1316 76.4678 89.6558 78.2364 88.1853L79.1002 89.3123C77.7623 90.4248 77.9451 91.7802 79.2834 93.5263C80.8407 95.5582 82.0488 95.8532 83.9404 94.2804L85.9242 92.6309L85.8634 92.5516C84.4513 93.2059 82.7019 92.7631 81.3149 90.9535ZM82.8631 85.352C80.9254 86.9631 81.2131 88.7511 82.5149 90.4496C83.9992 92.3862 85.8012 92.7332 87.4159 91.3906L87.6774 91.1732C89.1691 89.9329 89.1607 88.0166 87.7737 86.207C86.4232 84.4451 84.8008 83.7409 82.8631 85.352Z" fill="#2D1312"/>
<path d="M90.7487 102.655C89.071 100.24 89.574 97.5696 91.7037 95.91C93.8334 94.2503 96.425 94.5852 98.1598 97.0816C99.3468 98.7897 99.5097 100.739 98.3497 102.149L98.4068 102.231L100.41 100.67L101.141 101.721L94.0891 107.216C91.5177 109.22 89.3325 108.315 87.6319 105.868C86.1026 103.668 85.9954 101.169 87.8096 99.7548L88.6199 100.921C87.2474 101.99 87.373 103.361 88.6285 105.168C90.0894 107.27 91.2753 107.612 93.2157 106.1L95.2507 104.514L95.1936 104.431C93.7664 105.037 92.0498 104.527 90.7487 102.655ZM92.5141 97.0761C90.5263 98.6251 90.7382 100.435 91.9594 102.192C93.3518 104.196 95.1245 104.612 96.7809 103.321L97.0491 103.112C98.5793 101.92 98.6497 99.9912 97.3486 98.1189C96.0817 96.2959 94.5018 95.5271 92.5141 97.0761Z" fill="#2D1312"/>
<path d="M105.106 105.885L104.337 104.691L106.152 103.345L106.922 104.538L105.106 105.885ZM96.159 112.521L95.3898 111.328L103.325 105.442L104.094 106.635L96.159 112.521Z" fill="#2D1312"/>
<path d="M26.5854 35.9841L25.4776 35.0958L34.2642 24.9787L42.097 31.2595L41.2446 32.241L34.5196 26.8486L31.1623 30.7142L37.6532 35.919L36.8139 36.8854L30.323 31.6806L26.5854 35.9841Z" fill="#2D1312"/>
<path d="M39.5067 47.092C37.0889 44.9654 36.9341 41.9802 38.9698 39.7766C41.0056 37.573 44.0646 37.4144 46.4825 39.541C48.9154 41.6808 49.0701 44.666 47.0344 46.8696C44.9987 49.0732 41.9396 49.2318 39.5067 47.092ZM40.3753 46.1518C42.4177 47.9482 44.3546 47.7079 45.9831 45.945C47.5981 44.1968 47.6563 42.2776 45.6139 40.4812C43.5715 38.6849 41.6361 38.953 40.0211 40.7012C38.3925 42.4641 38.3329 44.3554 40.3753 46.1518Z" fill="#2D1312"/>
<path d="M48.6004 54.3912L47.5755 53.4084L54.4866 46.3479L55.4105 47.2338L53.5219 49.1633L53.594 49.2325C54.9158 48.311 56.6476 48.1429 58.1345 49.5686C59.7802 51.1466 59.3268 53.0393 58.0397 54.3542L57.3542 55.0545L56.3292 54.0717L56.8608 53.5286C58.036 52.328 58.1044 51.2576 56.8629 50.0672C55.4193 48.6829 53.9027 48.9743 52.3498 50.5608L48.6004 54.3912Z" fill="#2D1312"/>
<path d="M14.8834 26.9124L13.6998 26.0922L15.4581 23.862L8.40585 18.9751L9.04975 18.1584L21.7988 15.4326L23.1797 16.3895L17.4466 23.6613L19.5014 25.0852L18.6966 26.1061L16.6417 24.6822L14.8834 26.9124ZM10.8217 19.0705L16.263 22.8411L20.9312 16.92L20.849 16.8631L10.896 18.9763L10.8217 19.0705Z" fill="#2D1312"/>
</svg>
